<svg width="263" height="32" viewBox="0 0 263 32" fill="none" xmlns="http://www.w3.org/2000/svg">
<path d="M-10.212 11.12C-7.94536 11.12 -5.96536 11.5533 -4.27203 12.42C-2.5787 13.2733 -1.26536 14.4733 -0.332031 16.02C0.614637 17.5667 1.08797 19.3667 1.08797 21.42C1.08797 23.3133 0.594637 25.0267 -0.392029 26.56C-1.3787 28.0933 -2.74536 29.3133 -4.49203 30.22C-6.22536 31.1133 -8.2387 31.56 -10.532 31.56C-12.7987 31.56 -14.7787 31.1267 -16.472 30.26C-18.1654 29.38 -19.4854 28.1667 -20.432 26.62C-21.3654 25.0733 -21.832 23.2867 -21.832 21.26C-21.832 19.3267 -21.3387 17.6 -20.352 16.08C-19.3654 14.5467 -18.0054 13.34 -16.272 12.46C-14.5254 11.5667 -12.5054 11.12 -10.212 11.12ZM-8.75203 28.66C-8.24536 28.54 -7.8587 28.1867 -7.59203 27.6C-7.32536 27.0133 -7.20536 26.16 -7.23203 25.04C-7.2587 23.92 -7.4587 22.5 -7.83203 20.78C-8.1787 19.1267 -8.57203 17.78 -9.01203 16.74C-9.4387 15.7 -9.90536 14.9533 -10.412 14.5C-10.9187 14.0467 -11.4454 13.8867 -11.992 14.02C-12.4987 14.14 -12.8854 14.4933 -13.152 15.08C-13.4187 15.6667 -13.5387 16.52 -13.512 17.64C-13.472 18.7467 -13.272 20.1667 -12.912 21.9C-12.5654 23.54 -12.172 24.8867 -11.732 25.94C-11.292 26.98 -10.8254 27.7267 -10.332 28.18C-9.82536 28.62 -9.2987 28.78 -8.75203 28.66ZM17.9098 26.9V26.64H17.6098V17.4C17.6098 16.9733 17.5498 16.6733 17.4298 16.5C17.3232 16.3133 17.1565 16.1867 16.9298 16.12L16.4898 15.98C16.2098 15.8867 16.0032 15.7533 15.8698 15.58C15.7498 15.4067 15.6898 15.1867 15.6898 14.92C15.6898 14.6 15.7765 14.3467 15.9498 14.16C16.1232 13.9733 16.4498 13.7867 16.9298 13.6L21.3698 11.88C22.0498 11.6133 22.5965 11.42 23.0098 11.3C23.4365 11.18 23.8498 11.12 24.2498 11.12C24.8498 11.12 25.3032 11.2933 25.6098 11.64C25.9298 11.9733 26.0898 12.4 26.0898 12.92V26.8C26.0898 27.3333 26.1298 27.7133 26.2098 27.94C26.2898 28.1533 26.4298 28.3067 26.6298 28.4L27.0698 28.6C27.3765 28.7333 27.5965 28.9 27.7298 29.1C27.8632 29.3 27.9298 29.5333 27.9298 29.8C27.9298 30.1733 27.8098 30.4667 27.5698 30.68C27.3298 30.8933 26.9432 31 26.4098 31H21.5098C20.5632 31 19.7232 30.5933 18.9898 29.78C18.2698 28.9667 17.9098 28.0067 17.9098 26.9ZM4.68984 25.16V17.4C4.68984 16.9733 4.62984 16.6733 4.50984 16.5C4.40318 16.3133 4.23651 16.1867 4.00984 16.12L3.56984 15.98C3.28984 15.8867 3.08318 15.7533 2.94984 15.58C2.82984 15.4067 2.76984 15.1867 2.76984 14.92C2.76984 14.6 2.85651 14.3467 3.02984 14.16C3.20318 13.9733 3.52984 13.7867 4.00984 13.6L8.44984 11.88C9.16984 11.6 9.73651 11.4067 10.1498 11.3C10.5632 11.18 10.9298 11.12 11.2498 11.12C11.8898 11.12 12.3698 11.2933 12.6898 11.64C13.0098 11.9733 13.1698 12.4 13.1698 12.92V23.96C13.1698 24.8133 13.3632 25.4533 13.7498 25.88C14.1498 26.3067 14.7032 26.52 15.4098 26.52C15.8498 26.52 16.3098 26.4333 16.7898 26.26C17.2698 26.0867 17.6965 25.8333 18.0698 25.5L18.7698 24.88L19.9698 26.16L19.3698 26.72C17.4898 28.52 15.8565 29.78 14.4698 30.5C13.0832 31.2067 11.8098 31.56 10.6498 31.56C8.87651 31.56 7.43651 30.9667 6.32984 29.78C5.23651 28.5933 4.68984 27.0533 4.68984 25.16ZM39.782 20.08C39.782 18.04 40.0487 16.36 40.582 15.04C41.1154 13.7067 41.822 12.72 42.702 12.08C43.5954 11.44 44.5687 11.12 45.622 11.12C47.0354 11.12 48.1154 11.5467 48.862 12.4C49.622 13.24 50.002 14.5133 50.002 16.22C50.002 17.9667 49.6487 19.2533 48.942 20.08C48.2487 20.9067 47.342 21.32 46.222 21.32C45.0887 21.32 44.2354 21.0333 43.662 20.46C43.102 19.8733 42.822 19.0667 42.822 18.04V17.2C42.8087 16.8533 42.7287 16.5933 42.582 16.42C42.4487 16.2333 42.2354 16.14 41.942 16.14C41.6754 16.14 41.4354 16.26 41.222 16.5C41.022 16.7267 40.862 17.1067 40.742 17.64C40.622 18.16 40.562 18.8667 40.562 19.76L39.782 20.08ZM40.002 12.92L40.562 17.1V26.8C40.562 27.2667 40.6287 27.6 40.762 27.8C40.8954 27.9867 41.202 28.1267 41.682 28.22L43.202 28.52C43.602 28.6 43.8954 28.74 44.082 28.94C44.2687 29.14 44.362 29.42 44.362 29.78C44.362 30.1667 44.2287 30.4667 43.962 30.68C43.7087 30.8933 43.3287 31 42.822 31H31.762C31.2287 31 30.842 30.8933 30.602 30.68C30.362 30.4667 30.242 30.1733 30.242 29.8C30.242 29.5333 30.3087 29.3 30.442 29.1C30.5754 28.9 30.7954 28.7333 31.102 28.6L31.542 28.4C31.742 28.3067 31.882 28.1533 31.962 27.94C32.042 27.7133 32.082 27.3333 32.082 26.8V17.48C32.082 17.0533 32.022 16.7533 31.902 16.58C31.7954 16.3933 31.6287 16.2667 31.402 16.2L30.962 16.06C30.682 15.9667 30.4754 15.8333 30.342 15.66C30.222 15.4867 30.162 15.2667 30.162 15C30.162 14.68 30.2487 14.4267 30.422 14.24C30.6087 14.04 30.9354 13.8533 31.402 13.68L35.702 12C36.6487 11.6267 37.3287 11.3867 37.742 11.28C38.1554 11.1733 38.4754 11.12 38.702 11.12C39.0754 11.12 39.362 11.26 39.562 11.54C39.762 11.8067 39.9087 12.2667 40.002 12.92ZM79.7514 17.3C79.7514 18.3133 79.3647 19.1733 78.5914 19.88C77.8314 20.5867 76.8114 20.94 75.5314 20.94C74.2914 20.94 73.3581 20.6133 72.7314 19.96C72.1181 19.2933 71.8114 18.4467 71.8114 17.42V16.78C71.8114 15.9133 71.6314 15.2333 71.2714 14.74C70.9114 14.2333 70.4381 13.98 69.8514 13.98C69.3847 13.98 68.9447 14.1533 68.5314 14.5C68.1314 14.8467 67.8047 15.38 67.5514 16.1C67.2981 16.8067 67.1714 17.7067 67.1714 18.8C67.1714 20.3467 67.4314 21.64 67.9514 22.68C68.4847 23.72 69.2114 24.5067 70.1314 25.04C71.0514 25.56 72.0981 25.82 73.2714 25.82C74.1247 25.82 74.8914 25.72 75.5714 25.52C76.2647 25.3067 76.9514 24.9 77.6314 24.3C78.0181 23.9533 78.3114 23.72 78.5114 23.6C78.7114 23.48 78.9047 23.42 79.0914 23.42C79.3581 23.42 79.5514 23.5533 79.6714 23.82C79.8047 24.0867 79.8714 24.4133 79.8714 24.8C79.8714 25.9867 79.4714 27.1 78.6714 28.14C77.8847 29.1667 76.7847 29.9933 75.3714 30.62C73.9581 31.2467 72.3181 31.56 70.4514 31.56C68.4114 31.56 66.5781 31.16 64.9514 30.36C63.3381 29.5467 62.0581 28.42 61.1114 26.98C60.1647 25.5267 59.6914 23.8333 59.6914 21.9C59.6914 19.8333 60.1447 17.9867 61.0514 16.36C61.9714 14.7333 63.2647 13.4533 64.9314 12.52C66.6114 11.5867 68.5914 11.12 70.8714 11.12C72.6981 11.12 74.2714 11.4 75.5914 11.96C76.9247 12.5067 77.9514 13.2467 78.6714 14.18C79.3914 15.1133 79.7514 16.1533 79.7514 17.3ZM93.6161 11.12C95.8828 11.12 97.8628 11.5533 99.5561 12.42C101.249 13.2733 102.563 14.4733 103.496 16.02C104.443 17.5667 104.916 19.3667 104.916 21.42C104.916 23.3133 104.423 25.0267 103.436 26.56C102.449 28.0933 101.083 29.3133 99.3361 30.22C97.6028 31.1133 95.5894 31.56 93.2961 31.56C91.0294 31.56 89.0494 31.1267 87.3561 30.26C85.6628 29.38 84.3428 28.1667 83.3961 26.62C82.4628 25.0733 81.9961 23.2867 81.9961 21.26C81.9961 19.3267 82.4894 17.6 83.4761 16.08C84.4628 14.5467 85.8228 13.34 87.5561 12.46C89.3028 11.5667 91.3228 11.12 93.6161 11.12ZM95.0761 28.66C95.5828 28.54 95.9694 28.1867 96.2361 27.6C96.5028 27.0133 96.6228 26.16 96.5961 25.04C96.5694 23.92 96.3694 22.5 95.9961 20.78C95.6494 19.1267 95.2561 17.78 94.8161 16.74C94.3894 15.7 93.9228 14.9533 93.4161 14.5C92.9094 14.0467 92.3828 13.8867 91.8361 14.02C91.3294 14.14 90.9428 14.4933 90.6761 15.08C90.4094 15.6667 90.2894 16.52 90.3161 17.64C90.3561 18.7467 90.5561 20.1667 90.9161 21.9C91.2628 23.54 91.6561 24.8867 92.0961 25.94C92.5361 26.98 93.0028 27.7267 93.4961 28.18C94.0028 28.62 94.5294 28.78 95.0761 28.66ZM117.398 2.6V26.8C117.398 27.3333 117.438 27.7133 117.518 27.94C117.598 28.1533 117.738 28.3067 117.938 28.4L118.378 28.6C118.685 28.7333 118.905 28.9 119.038 29.1C119.171 29.3 119.238 29.5333 119.238 29.8C119.238 30.1733 119.118 30.4667 118.878 30.68C118.638 30.8933 118.251 31 117.718 31H108.598C108.065 31 107.678 30.8933 107.438 30.68C107.198 30.4667 107.078 30.1733 107.078 29.8C107.078 29.5333 107.145 29.3 107.278 29.1C107.411 28.9 107.631 28.7333 107.938 28.6L108.378 28.4C108.578 28.3067 108.718 28.1533 108.798 27.94C108.878 27.7133 108.918 27.3333 108.918 26.8V7.08C108.918 6.65333 108.858 6.35333 108.738 6.18C108.631 5.99333 108.465 5.86666 108.238 5.8L107.798 5.66C107.518 5.56667 107.311 5.43333 107.178 5.26C107.058 5.08667 106.998 4.86667 106.998 4.6C106.998 4.28 107.085 4.02667 107.258 3.84C107.431 3.65333 107.758 3.46667 108.238 3.28L112.678 1.56C113.398 1.28 113.965 1.08667 114.378 0.979999C114.791 0.859998 115.158 0.799998 115.478 0.799998C116.118 0.799998 116.598 0.973331 116.918 1.32C117.238 1.65333 117.398 2.08 117.398 2.6ZM131.46 2.6V26.8C131.46 27.3333 131.5 27.7133 131.58 27.94C131.66 28.1533 131.8 28.3067 132 28.4L132.44 28.6C132.747 28.7333 132.967 28.9 133.1 29.1C133.234 29.3 133.3 29.5333 133.3 29.8C133.3 30.1733 133.18 30.4667 132.94 30.68C132.7 30.8933 132.314 31 131.78 31H122.66C122.127 31 121.74 30.8933 121.5 30.68C121.26 30.4667 121.14 30.1733 121.14 29.8C121.14 29.5333 121.207 29.3 121.34 29.1C121.474 28.9 121.694 28.7333 122 28.6L122.44 28.4C122.64 28.3067 122.78 28.1533 122.86 27.94C122.94 27.7133 122.98 27.3333 122.98 26.8V7.08C122.98 6.65333 122.92 6.35333 122.8 6.18C122.694 5.99333 122.527 5.86666 122.3 5.8L121.86 5.66C121.58 5.56667 121.374 5.43333 121.24 5.26C121.12 5.08667 121.06 4.86667 121.06 4.6C121.06 4.28 121.147 4.02667 121.32 3.84C121.494 3.65333 121.82 3.46667 122.3 3.28L126.74 1.56C127.46 1.28 128.027 1.08667 128.44 0.979999C128.854 0.859998 129.22 0.799998 129.54 0.799998C130.18 0.799998 130.66 0.973331 130.98 1.32C131.3 1.65333 131.46 2.08 131.46 2.6ZM155.463 18.84C155.463 19.7733 155.21 20.5 154.703 21.02C154.196 21.5267 153.47 21.78 152.523 21.78H140.663V19.7H146.003C146.736 19.7 147.103 19.3533 147.103 18.66C147.103 16.98 146.91 15.78 146.523 15.06C146.136 14.34 145.623 13.98 144.983 13.98C144.516 13.98 144.096 14.1533 143.723 14.5C143.35 14.8467 143.05 15.38 142.823 16.1C142.61 16.8067 142.503 17.7067 142.503 18.8C142.503 21.2267 143.05 23.0067 144.143 24.14C145.236 25.26 146.73 25.82 148.623 25.82C149.503 25.82 150.303 25.72 151.023 25.52C151.743 25.32 152.45 24.9133 153.143 24.3C153.53 23.9533 153.823 23.72 154.023 23.6C154.223 23.48 154.416 23.42 154.603 23.42C154.87 23.42 155.063 23.5533 155.183 23.82C155.316 24.0867 155.383 24.4133 155.383 24.8C155.383 25.9867 154.976 27.1 154.163 28.14C153.363 29.1667 152.243 29.9933 150.803 30.62C149.376 31.2467 147.71 31.56 145.803 31.56C143.763 31.56 141.93 31.16 140.303 30.36C138.676 29.5467 137.39 28.42 136.443 26.98C135.496 25.5267 135.023 23.8333 135.023 21.9C135.023 19.7267 135.456 17.8333 136.323 16.22C137.19 14.6067 138.45 13.3533 140.103 12.46C141.77 11.5667 143.776 11.12 146.123 11.12C148.19 11.12 149.916 11.4533 151.303 12.12C152.69 12.7867 153.73 13.7 154.423 14.86C155.116 16.02 155.463 17.3467 155.463 18.84ZM177.486 17.3C177.486 18.3133 177.099 19.1733 176.326 19.88C175.566 20.5867 174.546 20.94 173.266 20.94C172.026 20.94 171.092 20.6133 170.466 19.96C169.852 19.2933 169.546 18.4467 169.546 17.42V16.78C169.546 15.9133 169.366 15.2333 169.006 14.74C168.646 14.2333 168.172 13.98 167.586 13.98C167.119 13.98 166.679 14.1533 166.266 14.5C165.866 14.8467 165.539 15.38 165.286 16.1C165.032 16.8067 164.906 17.7067 164.906 18.8C164.906 20.3467 165.166 21.64 165.686 22.68C166.219 23.72 166.946 24.5067 167.866 25.04C168.786 25.56 169.832 25.82 171.006 25.82C171.859 25.82 172.626 25.72 173.306 25.52C173.999 25.3067 174.686 24.9 175.366 24.3C175.752 23.9533 176.046 23.72 176.246 23.6C176.446 23.48 176.639 23.42 176.826 23.42C177.092 23.42 177.286 23.5533 177.406 23.82C177.539 24.0867 177.606 24.4133 177.606 24.8C177.606 25.9867 177.206 27.1 176.406 28.14C175.619 29.1667 174.519 29.9933 173.106 30.62C171.692 31.2467 170.052 31.56 168.186 31.56C166.146 31.56 164.312 31.16 162.686 30.36C161.072 29.5467 159.792 28.42 158.846 26.98C157.899 25.5267 157.426 23.8333 157.426 21.9C157.426 19.8333 157.879 17.9867 158.786 16.36C159.706 14.7333 160.999 13.4533 162.666 12.52C164.346 11.5867 166.326 11.12 168.606 11.12C170.432 11.12 172.006 11.4 173.326 11.96C174.659 12.5067 175.686 13.2467 176.406 14.18C177.126 15.1133 177.486 16.1533 177.486 17.3ZM180.65 14.32L180.01 14.06C179.717 13.94 179.497 13.7867 179.35 13.6C179.204 13.4133 179.13 13.1867 179.13 12.92C179.13 12.5333 179.257 12.24 179.51 12.04C179.777 11.8267 180.117 11.72 180.53 11.72H181.63C181.884 11.72 182.117 11.6533 182.33 11.52C182.557 11.3867 182.844 11.1467 183.19 10.8L186.45 7.5C186.89 7.06 187.297 6.73333 187.67 6.52C188.057 6.30667 188.424 6.2 188.77 6.2C189.157 6.2 189.457 6.32667 189.67 6.58C189.897 6.83333 190.01 7.2 190.01 7.68V23.72C190.01 24.6933 190.177 25.4333 190.51 25.94C190.844 26.4467 191.324 26.7 191.95 26.7C192.457 26.7 192.844 26.5733 193.11 26.32C193.39 26.0667 193.61 25.78 193.77 25.46C193.944 25.1267 194.124 24.8333 194.31 24.58C194.497 24.3267 194.75 24.2 195.07 24.2C195.337 24.2 195.55 24.2933 195.71 24.48C195.87 24.6667 195.95 24.9867 195.95 25.44C195.95 26.5733 195.624 27.6067 194.97 28.54C194.317 29.46 193.417 30.1933 192.27 30.74C191.124 31.2867 189.817 31.56 188.35 31.56C186.177 31.56 184.497 31.04 183.31 30C182.124 28.9467 181.53 27.36 181.53 25.24V15.62C181.53 15.2333 181.457 14.9533 181.31 14.78C181.177 14.6067 180.957 14.4533 180.65 14.32ZM187.09 14.56V11.72H194.39C194.804 11.72 195.13 11.8133 195.37 12C195.624 12.1733 195.75 12.4267 195.75 12.76C195.75 13.2667 195.504 13.6933 195.01 14.04C194.517 14.3867 193.704 14.56 192.57 14.56H187.09ZM207.906 12.92V26.8C207.906 27.3333 207.946 27.7133 208.026 27.94C208.106 28.1533 208.246 28.3067 208.446 28.4L208.886 28.6C209.192 28.7333 209.412 28.9 209.546 29.1C209.679 29.3 209.746 29.5333 209.746 29.8C209.746 30.1733 209.626 30.4667 209.386 30.68C209.146 30.8933 208.759 31 208.226 31H199.106C198.572 31 198.186 30.8933 197.946 30.68C197.706 30.4667 197.586 30.1733 197.586 29.8C197.586 29.5333 197.652 29.3 197.786 29.1C197.919 28.9 198.139 28.7333 198.446 28.6L198.886 28.4C199.086 28.3067 199.226 28.1533 199.306 27.94C199.386 27.7133 199.426 27.3333 199.426 26.8V17.4C199.426 16.9733 199.366 16.6733 199.246 16.5C199.139 16.3133 198.972 16.1867 198.746 16.12L198.306 15.98C198.026 15.8867 197.819 15.7533 197.686 15.58C197.566 15.4067 197.506 15.1867 197.506 14.92C197.506 14.6 197.592 14.3467 197.766 14.16C197.939 13.9733 198.266 13.7867 198.746 13.6L203.186 11.88C203.906 11.6 204.472 11.4067 204.886 11.3C205.299 11.18 205.666 11.12 205.986 11.12C206.626 11.12 207.106 11.2933 207.426 11.64C207.746 11.9733 207.906 12.4 207.906 12.92ZM203.226 9.36C201.732 9.36 200.552 9.01333 199.686 8.32C198.819 7.62666 198.386 6.68 198.386 5.48C198.386 4.29333 198.819 3.36 199.686 2.68C200.552 2 201.732 1.66 203.226 1.66C204.719 1.66 205.899 2 206.766 2.68C207.632 3.36 208.066 4.29333 208.066 5.48C208.066 6.68 207.632 7.62666 206.766 8.32C205.899 9.01333 204.719 9.36 203.226 9.36ZM223.108 11.12C225.375 11.12 227.355 11.5533 229.048 12.42C230.742 13.2733 232.055 14.4733 232.988 16.02C233.935 17.5667 234.408 19.3667 234.408 21.42C234.408 23.3133 233.915 25.0267 232.928 26.56C231.942 28.0933 230.575 29.3133 228.828 30.22C227.095 31.1133 225.082 31.56 222.788 31.56C220.522 31.56 218.542 31.1267 216.848 30.26C215.155 29.38 213.835 28.1667 212.888 26.62C211.955 25.0733 211.488 23.2867 211.488 21.26C211.488 19.3267 211.982 17.6 212.968 16.08C213.955 14.5467 215.315 13.34 217.048 12.46C218.795 11.5667 220.815 11.12 223.108 11.12ZM224.568 28.66C225.075 28.54 225.462 28.1867 225.728 27.6C225.995 27.0133 226.115 26.16 226.088 25.04C226.062 23.92 225.862 22.5 225.488 20.78C225.142 19.1267 224.748 17.78 224.308 16.74C223.882 15.7 223.415 14.9533 222.908 14.5C222.402 14.0467 221.875 13.8867 221.328 14.02C220.822 14.14 220.435 14.4933 220.168 15.08C219.902 15.6667 219.782 16.52 219.808 17.64C219.848 18.7467 220.048 20.1667 220.408 21.9C220.755 23.54 221.148 24.8867 221.588 25.94C222.028 26.98 222.495 27.7267 222.988 28.18C223.495 28.62 224.022 28.78 224.568 28.66ZM246.89 12.92V26.8C246.89 27.3333 246.93 27.7067 247.01 27.92C247.09 28.1333 247.23 28.2933 247.43 28.4L247.83 28.62C248.27 28.8733 248.49 29.24 248.49 29.72C248.49 30.5733 247.977 31 246.95 31H238.09C237.557 31 237.17 30.8933 236.93 30.68C236.69 30.4667 236.57 30.1733 236.57 29.8C236.57 29.5333 236.637 29.3 236.77 29.1C236.903 28.9 237.123 28.7333 237.43 28.6L237.87 28.4C238.07 28.3067 238.21 28.1533 238.29 27.94C238.37 27.7133 238.41 27.3333 238.41 26.8V17.4C238.41 16.9733 238.35 16.6733 238.23 16.5C238.123 16.3133 237.957 16.1867 237.73 16.12L237.29 15.98C237.01 15.8867 236.803 15.7533 236.67 15.58C236.55 15.4067 236.49 15.1867 236.49 14.92C236.49 14.6 236.577 14.3467 236.75 14.16C236.923 13.9733 237.25 13.7867 237.73 13.6L242.17 11.88C242.85 11.6133 243.397 11.42 243.81 11.3C244.237 11.18 244.65 11.12 245.05 11.12C245.65 11.12 246.103 11.2933 246.41 11.64C246.73 11.9733 246.89 12.4 246.89 12.92ZM246.17 17.8L244.97 16.52L245.57 15.96C247.45 14.16 249.083 12.9067 250.47 12.2C251.857 11.48 253.13 11.12 254.29 11.12C256.077 11.12 257.517 11.7133 258.61 12.9C259.703 14.0733 260.25 15.6133 260.25 17.52V26.8C260.25 27.3333 260.29 27.7133 260.37 27.94C260.45 28.1533 260.59 28.3067 260.79 28.4L261.23 28.6C261.537 28.7333 261.757 28.9 261.89 29.1C262.023 29.3 262.09 29.5333 262.09 29.8C262.09 30.1733 261.97 30.4667 261.73 30.68C261.49 30.8933 261.103 31 260.57 31H251.71C250.683 31 250.17 30.5733 250.17 29.72C250.17 29.24 250.39 28.8733 250.83 28.62L251.23 28.4C251.43 28.2933 251.57 28.1333 251.65 27.92C251.73 27.7067 251.77 27.3333 251.77 26.8V18.72C251.77 17.8667 251.57 17.2267 251.17 16.8C250.783 16.3733 250.237 16.16 249.53 16.16C249.09 16.16 248.63 16.2467 248.15 16.42C247.67 16.5933 247.243 16.8467 246.87 17.18L246.17 17.8Z" fill="#83888F"/>
</svg>
